<svg width="34" height="33" viewBox="0 0 34 33" fill="none" xmlns="http://www.w3.org/2000/svg">
<path d="M17.7923 0.0488724C17.8423 0.0553366 17.8927 0.0584837 17.9431 0.0582939H23.2718C23.3129 0.0581507 23.3539 0.0557919 23.3948 0.0512277C24.0553 -0.0215149 24.722 -0.0167727 25.3814 0.0653602C26.2652 0.10842 27.1274 0.356604 27.9019 0.790826C29.364 1.46447 30.6405 2.55031 31.5502 3.97062C32.3881 5.2761 32.862 6.78747 32.9217 8.34428C32.9813 9.90109 32.6245 11.4452 31.8891 12.8128L24.4276 5.14362C24.3194 5.03291 24.1907 4.94509 24.0489 4.88525C23.9071 4.82541 23.7549 4.79474 23.6014 4.79502H20.5123C20.2594 4.79467 20.0133 4.87821 19.8114 5.03291L14.8262 8.86516C14.5214 9.09879 14.1695 9.26112 13.7956 9.3405C13.4217 9.41987 13.0352 9.41434 12.6636 9.3243C12.2921 9.23426 11.9448 9.06193 11.6466 8.81966C11.3484 8.5774 11.1067 8.2712 10.9388 7.923C10.6818 7.38505 10.6168 6.77325 10.7548 6.19205C10.8927 5.61084 11.2252 5.09625 11.6954 4.73613L17.7946 0.0488724H17.7923ZM8.51586 20.906L8.48337 20.9366L6.71256 22.7267L6.68239 22.755C6.41831 23.0045 6.06933 23.1407 5.70853 23.135C5.34773 23.1293 5.0031 22.9822 4.74681 22.7244C4.61791 22.5947 4.51559 22.4405 4.44576 22.2705C4.37593 22.1005 4.33998 21.9181 4.33998 21.7339C4.33998 21.5497 4.37593 21.3674 4.44576 21.1974C4.51559 21.0274 4.61791 20.8731 4.74681 20.7435L6.51993 18.9557C6.64886 18.8245 6.80205 18.7203 6.97071 18.6493C7.13937 18.5782 7.3202 18.5416 7.50281 18.5416C7.68543 18.5416 7.86625 18.5782 8.03491 18.6493C8.20357 18.7203 8.35676 18.8245 8.48569 18.9557C9.01948 19.4928 9.02877 20.3572 8.51586 20.906ZM8.32787 24.4156C7.81729 24.9644 7.82657 25.8288 8.35804 26.3658C8.61934 26.6292 8.97266 26.777 9.34092 26.777C9.70918 26.777 10.0625 26.6292 10.3238 26.3658L12.0969 24.5781C12.2424 24.4317 12.3538 24.2542 12.4229 24.0585C12.4921 23.8628 12.5172 23.6538 12.4965 23.447C12.4758 23.2402 12.4098 23.0406 12.3033 22.863C12.1968 22.6854 12.0526 22.5342 11.8811 22.4205C11.6199 22.2465 11.3089 22.1663 10.9975 22.1928C10.6862 22.2192 10.3926 22.3508 10.1637 22.5666L10.1312 22.5972L8.36036 24.3849L8.32787 24.4156ZM4.14571 16.0492C4.27461 16.1788 4.37693 16.3331 4.44676 16.5031C4.51659 16.6731 4.55254 16.8554 4.55254 17.0396C4.55254 17.2238 4.51659 17.4061 4.44676 17.5761C4.37693 17.7461 4.27461 17.9004 4.14571 18.03L2.37259 19.8178C2.11129 20.0812 1.75797 20.229 1.38971 20.229C1.02145 20.229 0.668129 20.0812 0.40683 19.8178C0.277927 19.6882 0.175607 19.5339 0.105779 19.3639C0.0359518 19.1939 0 19.0115 0 18.8274C0 18.6432 0.0359518 18.4608 0.105779 18.2908C0.175607 18.1208 0.277927 17.9665 0.40683 17.8369L2.17996 16.0468C2.44125 15.7834 2.79457 15.6356 3.16283 15.6356C3.53109 15.6356 3.88441 15.7834 4.14571 16.0468V16.0492ZM15.7082 26.2386C15.8371 26.3683 15.9394 26.5226 16.0092 26.6926C16.079 26.8626 16.115 27.0449 16.115 27.2291C16.115 27.4133 16.079 27.5956 16.0092 27.7656C15.9394 27.9356 15.8371 28.0899 15.7082 28.2195L13.935 30.0096C13.6734 30.2724 13.3202 30.4198 12.9522 30.4198C12.5841 30.4198 12.2309 30.2724 11.9693 30.0096C11.7485 29.7878 11.6083 29.4965 11.5716 29.1834C11.535 28.8702 11.604 28.5537 11.7674 28.2855L11.7743 28.2761C11.8297 28.1856 11.8951 28.1018 11.9693 28.0264L13.7424 26.2386C14.0037 25.9753 14.357 25.8275 14.7253 25.8275C15.0935 25.8275 15.4469 25.9753 15.7082 26.2386ZM3.63977 3.32524C4.93045 2.02483 6.51741 1.06779 8.25987 0.538989C10.0023 0.0101904 11.8465 -0.0740172 13.6287 0.293835L10.2936 2.85887C9.78242 3.25198 9.35282 3.74375 9.02952 4.30593C8.70622 4.8681 8.49559 5.48959 8.40975 6.13466C8.32391 6.77972 8.36455 7.43565 8.52933 8.06472C8.69411 8.6938 8.97979 9.28361 9.36993 9.80025C10.1591 10.8449 11.3234 11.5303 12.6087 11.7069C13.8941 11.8834 15.196 11.5367 16.2303 10.7424L20.9045 7.15042H23.0142L27.512 11.6846L27.5213 11.6728L31.2532 15.5098C31.2712 15.5284 31.2898 15.5465 31.3089 15.5639L33.3164 17.6014C33.7418 18.0381 33.9862 18.6236 33.9994 19.2376C34.0127 19.8516 33.7938 20.4474 33.3877 20.9026C32.9816 21.3579 32.4191 21.6381 31.8158 21.6856C31.2125 21.733 30.6142 21.5443 30.1438 21.158L29.9744 20.9884C29.9353 20.9485 29.8934 20.9115 29.8491 20.8777L27.8763 18.8756C27.6588 18.6545 27.3635 18.5301 27.0556 18.5299C26.7477 18.5297 26.4522 18.6536 26.2343 18.8745C26.0165 19.0953 25.8939 19.3949 25.8937 19.7074C25.8935 20.02 26.0156 20.3198 26.2332 20.5409L28.3266 22.6655C28.4055 22.7456 28.489 22.8209 28.5703 22.894L28.6399 22.9646C28.9409 23.2698 29.1101 23.6838 29.1103 24.1156C29.1105 24.5474 28.9417 24.9616 28.6411 25.267C28.3404 25.5725 27.9324 25.7442 27.507 25.7445C27.0815 25.7447 26.6734 25.5734 26.3724 25.2682L26.0638 24.9573C25.9005 24.7921 25.6925 24.68 25.4662 24.6353C25.2399 24.5906 25.0056 24.6153 24.7932 24.7062C24.5808 24.7972 24.3999 24.9503 24.2736 25.1461C24.1473 25.3418 24.0814 25.5713 24.0841 25.8052C24.0809 25.9636 24.1093 26.1209 24.1675 26.2679C24.2257 26.4148 24.3126 26.5483 24.4229 26.6603L24.8291 27.0725C24.9652 27.2106 25.0731 27.3745 25.1468 27.555C25.2204 27.7354 25.2583 27.9288 25.2583 28.1241C25.2583 28.3195 25.2204 28.5129 25.1468 28.6933C25.0731 28.8738 24.9652 29.0377 24.8291 29.1758C24.693 29.3139 24.5314 29.4235 24.3536 29.4982C24.1758 29.573 23.9853 29.6115 23.7928 29.6115C23.6004 29.6115 23.4098 29.573 23.232 29.4982C23.0542 29.4235 22.8926 29.3139 22.7566 29.1758L22.55 28.9638C22.48 28.8798 22.4064 28.7989 22.3295 28.7212L21.9512 28.3373C21.7324 28.1228 21.4392 28.0041 21.135 28.0068C20.8307 28.0094 20.5397 28.1333 20.3245 28.3517C20.1094 28.57 19.9873 28.8654 19.9847 29.1742C19.982 29.483 20.099 29.7805 20.3104 30.0026L20.5935 30.2899C20.6296 30.3385 20.6683 30.3849 20.7096 30.4289L20.8233 30.542C21.0548 30.8468 21.1642 31.2291 21.1298 31.6123C21.0954 31.9955 20.9196 32.3514 20.6376 32.6087C20.3556 32.866 19.9883 33.0057 19.6092 32.9998C19.23 32.9939 18.8671 32.8429 18.593 32.577L16.5854 30.6574L17.356 29.8801C17.7008 29.5332 17.9745 29.1205 18.1613 28.6657C18.3481 28.2109 18.4442 27.723 18.4442 27.2303C18.4442 26.7375 18.3481 26.2497 18.1613 25.7949C17.9745 25.3401 17.7008 24.9273 17.356 24.5804C16.6832 23.9008 15.7798 23.5081 14.8309 23.4828C14.8049 22.5246 14.4159 21.6134 13.7447 20.939C13.0727 20.2597 12.1701 19.867 11.222 19.8414C11.1954 18.8828 10.8055 17.9716 10.1335 17.2975C9.70316 16.8631 9.17489 16.5419 8.59451 16.3617C8.01414 16.1815 7.3992 16.1478 6.80308 16.2635C6.65423 15.5519 6.30326 14.9001 5.79351 14.3886C5.13959 13.7316 4.26977 13.3425 3.35073 13.296C2.43169 13.2495 1.52806 13.5488 0.812978 14.1366C0.294751 12.2418 0.283938 10.241 0.781653 8.34056C1.27937 6.44012 2.26759 4.70883 3.64441 3.32524H3.63977Z" fill="#F02222"/>
</svg>
