<svg width="34" height="34" viewBox="0 0 34 34" fill="none" xmlns="http://www.w3.org/2000/svg">
<path d="M33.5057 31.0918L31.0919 33.5057C30.7734 33.8223 30.3426 34 29.8935 34C29.4444 34 29.0136 33.8223 28.6951 33.5057L8.50067 13.3445C7.9479 13.5046 7.37624 13.5904 6.80081 13.5995C5.71851 13.5987 4.65203 13.3396 3.69004 12.8436C2.72805 12.3477 1.89834 11.6292 1.26989 10.748C0.641448 9.86685 0.232426 8.84837 0.0768325 7.77727C-0.0787608 6.70617 0.0235703 5.6134 0.375318 4.58982L4.69298 8.90765L5.5939 8.00668L8.00771 5.59278L8.90864 4.69181L4.59098 0.373985C5.61453 0.0222237 6.70726 -0.0801115 7.77831 0.0754879C8.84937 0.231087 9.86781 0.640126 10.749 1.2686C11.6301 1.89706 12.3485 2.72681 12.8444 3.68884C13.3404 4.65087 13.5995 5.71739 13.6003 6.79973C13.5912 7.37519 13.5054 7.94686 13.3453 8.49966L33.5057 28.6949C33.8223 29.0134 34 29.4442 34 29.8933C34 30.3424 33.8223 30.7733 33.5057 31.0918ZM0.494308 28.6949C0.177707 29.0134 0 29.4442 0 29.8933C0 30.3424 0.177707 30.7733 0.494308 31.0918L2.90812 33.5057C3.22661 33.8223 3.65744 34 4.10652 34C4.5556 34 4.98644 33.8223 5.30493 33.5057L14.6032 24.224L9.79257 19.4132L0.494308 28.6949ZM30.5989 0L23.7995 3.39987V6.79973L20.1108 10.4886L23.5105 13.8884L27.1992 10.1996H30.5989L33.9986 3.39987L30.5989 0Z" fill="#F02222"/>
</svg>
