<svg width="36" height="33" viewBox="0 0 36 33" fill="none" xmlns="http://www.w3.org/2000/svg">
<path d="M22.6907 12.592L30.9959 13.2345L26.482 4.86141L23.3078 4.61584L22.6907 12.592ZM25.2316 29.8394C25.8325 29.8859 26.3919 29.6684 26.9004 29.1059C27.4089 28.5435 27.7095 27.8646 27.7743 27.0271C27.8344 26.2494 27.6419 25.5325 27.2259 24.8985C26.8099 24.2645 26.2953 23.9037 25.6944 23.8573C25.0472 23.8072 24.4832 24.0845 23.9747 24.647C23.4662 25.2094 23.2119 25.8918 23.1517 26.6695C23.0869 27.507 23.2332 28.2204 23.6492 28.8544C24.0652 29.4884 24.5844 29.7893 25.2316 29.8394ZM7.5118 28.4685C8.18977 28.5209 8.76453 28.3046 9.24225 27.7398C9.71997 27.1749 9.98968 26.4937 10.0545 25.6562C10.1146 24.8785 9.95292 24.1639 9.56776 23.5324C9.18261 22.9008 8.65258 22.5388 7.97461 22.4864C7.29663 22.4339 6.71725 22.71 6.23953 23.2749C5.76181 23.8397 5.49209 24.5209 5.43193 25.2986C5.36714 26.1361 5.52886 26.8507 5.91402 27.4823C6.29917 28.1139 6.83382 28.416 7.5118 28.4685ZM28.2389 0.98538L35.0175 13.5457L33.9377 27.504L30.0855 27.2059C29.9575 28.861 29.3718 30.2199 28.3548 31.3448C27.3546 32.4509 26.2328 32.9258 25.0002 32.8304C23.7213 32.7315 22.6859 32.0897 21.8678 30.8429C21.0358 29.5749 20.7124 28.1457 20.8404 26.4907L12.3658 25.835C12.2377 27.4901 11.6675 28.8502 10.6658 29.9762C9.63486 31.08 8.52848 31.5561 7.28039 31.4595C6.0323 31.363 5.01231 30.7224 4.16341 29.4732C3.34688 28.2064 2.99261 26.7748 3.12065 25.1198L0.038953 24.8814L0.656033 16.9052L13.2756 17.8815L4.49211 7.39276L4.04627 13.1555L0.964574 12.9171L1.89019 0.952873L3.43104 1.07208L19.4455 14.4673L20.5347 0.389336L28.2389 0.98538Z" fill="#F02222"/>
</svg>
